<svg width="128" height="128" viewBox="0 0 128 128" fill="none" xmlns="http://www.w3.org/2000/svg">
<g clip-path="url(#clip0_2077_3513)">
<path fill-rule="evenodd" clip-rule="evenodd" d="M50.7314 0.250535C50.5021 0.373202 49.1474 0.543868 47.7287 0.623868C41.3341 0.981202 33.8941 2.52253 29.4994 4.39453C29.0194 4.62387 28.3954 4.87453 28.1234 5.00253C22.9774 7.2071 18.3026 10.3792 14.3527 14.3465C10.3179 18.3621 7.1058 23.1268 4.89673 28.3732C4.64606 28.9065 4.37406 29.5999 4.2514 29.8665C3.89406 30.6292 2.8754 33.9199 2.41673 35.6265C1.48088 39.5957 0.881422 43.6366 0.624732 47.7065C0.544732 49.1252 0.374065 50.5012 0.251398 50.7465C-0.105935 51.3759 -0.105935 76.6239 0.251398 77.2532C0.374065 77.4985 0.544732 78.8745 0.624732 80.2932C0.982065 86.6665 2.5234 94.1065 4.3954 98.5012C4.62473 98.9812 4.8754 99.6052 5.0034 99.8772C7.20955 105.024 10.3835 109.698 14.3527 113.648C18.3683 117.683 23.133 120.895 28.3794 123.104C28.9127 123.355 29.6061 123.627 29.8727 123.749C30.6247 124.107 33.9154 125.125 35.6274 125.584C39.5965 126.52 43.6375 127.119 47.7074 127.376C49.1261 127.456 50.5021 127.627 50.7474 127.749C51.3767 128.107 76.6247 128.107 77.2541 127.749C77.4994 127.627 78.8754 127.456 80.2941 127.376C86.6674 127.019 94.1074 125.477 98.5021 123.605C98.9821 123.376 99.6061 123.125 99.8781 123.003C105.025 120.795 109.7 117.619 113.649 113.648C117.684 109.632 120.896 104.868 123.105 99.6212C123.355 99.0879 123.627 98.3945 123.75 98.1279C124.107 97.3759 125.126 94.0852 125.585 92.3732C126.521 88.4041 127.12 84.3631 127.377 80.2932C127.457 78.8745 127.627 77.4985 127.75 77.2532C128.107 76.6239 128.107 51.3759 127.75 50.7465C127.627 50.5012 127.457 49.1252 127.377 47.7065C127.019 41.3332 125.478 33.8932 123.606 29.4985C123.377 29.0185 123.126 28.3945 123.003 28.1225C120.796 22.9757 117.62 18.3008 113.649 14.3519C109.633 10.317 104.868 7.10494 99.6221 4.89587C99.0887 4.6452 98.3954 4.3732 98.1287 4.25053C97.3714 3.8932 94.0807 2.87454 92.3741 2.41587C88.4049 1.48002 84.3639 0.880559 80.2941 0.623868C78.8754 0.543868 77.4994 0.373202 77.2541 0.250535C76.6247 -0.0854648 51.2701 -0.0854648 50.7314 0.250535ZM90.7901 27.1465C96.0007 28.4799 99.5207 31.9999 100.854 37.2105C101.211 38.6025 101.249 41.6639 101.249 63.9999C101.249 86.3359 101.211 89.3972 100.854 90.7892C99.5207 95.9999 96.0007 99.5199 90.7901 100.853C89.3981 101.211 86.3527 101.248 64.3367 101.248C42.7901 101.248 39.2487 101.211 37.8941 100.875C32.7101 99.5839 29.3554 96.2879 27.7714 90.9972C27.4194 89.7705 27.3767 86.9812 27.3767 63.9999C27.3767 41.0185 27.4194 38.2292 27.7714 37.0025C29.3287 31.7688 32.655 28.4834 37.7501 27.1465C38.8967 26.8532 43.2487 26.7892 64.1661 26.7732C86.3954 26.7519 89.3927 26.7892 90.7901 27.1465ZM37.1474 54.9812L32.9181 59.2105L37.2114 63.4559C46.7901 73.0185 50.2727 75.2959 58.6247 77.5412C60.3314 77.9999 68.1714 77.9999 69.8781 77.5412C78.2727 75.2692 81.5421 73.1465 90.9981 63.8345L95.6274 59.2692L91.3767 55.0025C89.0407 52.6665 87.0194 50.7519 86.8754 50.7519C86.7527 50.7519 84.4594 52.9172 81.7554 55.5839C79.0887 58.2292 76.5821 60.6239 76.2301 60.8959C74.196 62.6285 71.8869 64.0092 69.3981 64.9812C68.4572 65.2792 67.4942 65.5021 66.5181 65.6479C65.2019 65.9663 63.8333 66.0026 62.5021 65.7545C57.0194 64.8959 53.8781 62.8319 45.6274 54.5225C43.5847 52.4585 41.7714 50.7519 41.6274 50.7519C41.4834 50.7519 39.4781 52.6452 37.1474 54.9812Z" fill="black"/>
</g>
<defs>
<clipPath id="clip0_2077_3513">
<rect width="128" height="128" fill="white"/>
</clipPath>
</defs>
</svg>
